<svg version="1.1" id="Re-logo" xmlns="http://www.w3.org/2000/svg" viewBox="2 4 32 34">

    <path fill="#ffffff" d="M21.07,16.16c0-0.97,0.3-1.74,0.9-2.3c0.61-0.57,1.44-0.85,2.49-0.85c2.13,0,3.2,1.18,3.2,3.53
	c0,0.54-0.06,1.34-0.18,2.38h-6.42V16.16z M24.95,29.46c-1.52,0-2.57-0.5-3.15-1.51c-0.59-1.01-0.83-3.69-0.73-8.04h11.16
	c-0.1-2.47-0.89-4.4-2.37-5.8c-1.48-1.4-3.2-2.09-5.17-2.09c-1.77,0-3.36,0.59-4.79,1.67c0.25,0.59,0.34,1.23,0.29,1.88
	c-0.01,0.23-0.05,0.46-0.11,0.68c-0.36,1.44-1.46,2.67-3.38,2.67c-0.08,0-0.13-0.04-0.21-0.04c-0.19,0.73-0.33,1.49-0.33,2.32
	c0,2.66,0.88,4.87,2.62,6.63c1.75,1.76,3.81,2.64,6.18,2.64c1.66,0,3.17-0.52,4.52-1.57c1.35-1.04,2.27-2.66,2.76-4.85h-0.95
	C30.17,27.65,28.06,29.46,24.95,29.46" />
    <path fill="#ffffff" d="M6.91,28.92V13.84H3.34v-1.12h3.62c1.85,0,3.26-0.1,4.23-0.29v4.17h0.09c1.03-2.78,2.55-4.17,4.56-4.17
	c0.88,0,1.59,0.27,2.13,0.8c0.54,0.54,0.8,1.19,0.8,1.95c0,0.71-0.22,1.28-0.65,1.71c-0.43,0.43-1,0.65-1.69,0.65
	c-1.26,0-1.9-0.63-1.9-1.9l0.09-0.95c0-0.34-0.15-0.51-0.46-0.51c-0.48,0-1.1,0.65-1.85,1.96c-0.75,1.31-1.13,3.31-1.13,6v6.77h3.66
	v1.12H3.34v-1.12H6.91z" />

</svg>
