<?xml version="1.0" standalone="no"?>
<!DOCTYPE svg PUBLIC "-//W3C//DTD SVG 20010904//EN http://www.w3.org/TR/2001/REC-SVG-20010904/DTD/svg10.dtd">
<svg version="1.0" xmlns="http://www.w3.org/2000/svg"
 width="544.000000pt" height="544.000000pt" viewBox="0 0 544.000000 544.000000"
 preserveAspectRatio="xMidYMid meet">
<metadata>
Created by potrace 1.14, written by Peter Selinger 2001-2017
</metadata>
<g transform="translate(0.000000,544.000000) scale(0.100000,-0.100000)"
fill="#000000" stroke="none">
<path d="M3697 4154 c-1 -1 -27 -4 -57 -7 -123 -13 -274 -60 -405 -125 -72
-35 -205 -124 -205 -137 0 -5 7 -31 14 -57 21 -69 28 -115 27 -193 -3 -174
-58 -313 -170 -426 -103 -103 -218 -152 -358 -152 -61 -1 -63 -1 -72 -31 -6
-17 -13 -49 -17 -71 -4 -22 -9 -49 -11 -60 -26 -119 -20 -374 12 -524 8 -37
16 -78 19 -91 32 -164 166 -421 297 -572 96 -109 288 -278 318 -278 6 0 11 -4
11 -8 0 -11 180 -105 250 -131 64 -23 157 -50 197 -57 15 -3 35 -7 43 -9 101
-28 361 -23 515 10 114 24 293 107 407 188 68 49 190 163 221 207 65 92 109
166 141 234 37 77 104 265 112 315 3 14 7 33 9 41 4 14 -34 17 -142 11 -6 -1
-14 -15 -18 -31 -16 -71 -105 -269 -167 -370 -67 -109 -175 -225 -274 -296
-58 -42 -197 -111 -233 -117 -9 -1 -20 -5 -26 -9 -9 -5 -64 -17 -150 -33 -40
-7 -252 -7 -290 0 -130 25 -223 69 -295 144 -90 92 -128 191 -155 401 -3 19
-7 46 -10 59 -13 67 -20 259 -20 571 l0 345 885 0 c541 -1 888 3 892 9 3 5 5
19 3 30 -2 12 -6 50 -9 86 -6 67 -19 147 -36 209 -5 20 -11 47 -14 61 -8 46
-88 234 -117 277 -16 23 -29 44 -29 47 0 3 -20 32 -44 63 -200 260 -492 434
-791 469 -53 6 -252 13 -258 8z m223 -174 c162 -41 272 -151 316 -313 34 -125
36 -234 9 -551 -3 -27 -7 -52 -11 -55 -3 -3 -235 -6 -515 -7 l-510 -1 1 251
c2 248 9 330 35 394 8 18 15 36 16 40 5 21 64 95 106 132 71 62 157 102 253
117 19 3 36 6 38 8 8 7 223 -4 262 -15z"/>
<path d="M1558 4079 c-25 -6 -119 -15 -269 -25 -46 -4 -271 -7 -499 -8 l-415
-2 0 -89 0 -89 280 0 c154 0 282 -3 285 -7 9 -13 6 -2387 -3 -2396 -5 -4 -131
-9 -280 -9 -150 -1 -274 -2 -277 -3 -5 -1 -6 -153 -1 -171 2 -8 1814 -6 1826
2 8 5 13 139 6 168 0 3 -132 5 -292 5 l-290 -1 4 701 c2 385 7 716 10 735 3
19 8 58 11 85 3 28 10 73 16 100 5 28 12 61 14 75 3 14 5 25 6 25 1 0 3 11 6
25 11 62 61 193 106 280 28 52 53 97 57 100 3 3 24 31 45 63 82 122 171 183
233 161 17 -6 29 -20 34 -38 7 -25 6 -54 -5 -196 -6 -81 37 -191 94 -238 21
-17 76 -41 114 -49 105 -22 247 2 315 52 75 56 133 149 147 235 38 239 -94
444 -327 505 -73 20 -247 14 -314 -9 -61 -22 -156 -69 -187 -93 -47 -37 -136
-130 -176 -183 -40 -54 -123 -208 -173 -320 l-24 -55 -3 337 -2 338 -24 -2
c-13 -1 -34 -5 -48 -9z"/>
</g>
</svg>
